Coordinates
version=1
nRows=5
nColumns=40
inDegrees=yes

Units are S.I. units (second, meters, Newtons, ...)
If the header above contains a line with 'inDegrees', this indicates whether rotational values are in degrees (yes) or radians (no).

endheader
time	pelvis_tilt	pelvis_list	pelvis_rotation	pelvis_tx	pelvis_ty	pelvis_tz	hip_flexion_r	hip_adduction_r	hip_rotation_r	knee_angle_r	knee_angle_r_beta	ankle_angle_r	subtalar_angle_r	mtp_angle_r	hip_flexion_l	hip_adduction_l	hip_rotation_l	knee_angle_l	knee_angle_l_beta	ankle_angle_l	subtalar_angle_l	mtp_angle_l	lumbar_extension	lumbar_bending	lumbar_rotation	arm_flex_r	arm_add_r	arm_rot_r	elbow_flex_r	pro_sup_r	wrist_flex_r	wrist_dev_r	arm_flex_l	arm_add_l	arm_rot_l	elbow_flex_l	pro_sup_l	wrist_flex_l	wrist_dev_l
      4.78500000	    -12.36817114	      2.54850929	     -5.47290167	     -0.21970161	      0.93456116	     -0.88388010	     33.88402982	    -19.71446806	     -9.27982070	     40.01872113	      0.69845845	     15.88593224	      0.00000000	      0.00000000	     28.09741444	    -24.02043568	    -24.93630078	     41.23903938	      0.71975702	     13.31266320	      0.00000000	      0.00000000	    -17.79072611	      3.86237113	      1.36073465	    -47.68381502	    -51.87185433	     18.99444945	    107.64722072	     87.75871451	      0.00000000	      0.00000000	    -37.20336231	    -55.96508950	     25.74202518	    107.98176652	     87.73498313	      0.00000000	      0.00000000
      4.79000000	    -12.91476123	      2.23140421	     -5.63790696	     -0.22473073	      0.92230487	     -0.88489279	     37.04041893	    -19.86295622	     -8.33384616	     44.28700377	      0.77295403	     17.13787881	      0.00000000	      0.00000000	     30.05644943	    -24.80721309	    -23.87401391	     43.63905403	      0.76164518	     16.19196498	      0.00000000	      0.00000000	    -18.31427363	      4.21902983	      1.69558694	    -46.95783867	    -52.14436353	     19.44752656	    107.42258088	     87.77498602	      0.00000000	      0.00000000	    -36.20478597	    -55.69687268	     26.32096908	    107.44929968	     87.74538849	      0.00000000	      0.00000000
      4.79500000	    -14.09220919	      2.07049491	     -5.80802545	     -0.22951802	      0.90967752	     -0.88585111	     40.85621973	    -20.03198949	     -7.35544381	     48.29198968	      0.84285422	     17.79357143	      0.00000000	      0.00000000	     32.74299923	    -25.57109977	    -22.88806651	     46.23243610	      0.80690823	     18.99900137	      0.00000000	      0.00000000	    -18.04365292	      4.44203843	      2.04260920	    -46.06399754	    -52.28732909	     20.13403445	    106.93156605	     87.79035960	      0.00000000	      0.00000000	    -35.08266345	    -55.35277671	     27.20327447	    106.63399702	     87.78848541	      0.00000000	      0.00000000
      4.80000000	    -15.22094180	      1.81988947	     -5.61329636	     -0.23477264	      0.89772284	     -0.88662746	     44.26311802	    -20.21824420	     -6.73386568	     51.86850181	      0.90527613	     18.01952896	      0.00000000	      0.00000000	     36.05919221	    -26.38588561	    -21.10026138	     49.30526732	      0.86053925	     20.56021541	      0.00000000	      0.00000000	    -17.84626400	      4.77761717	      2.19181378	    -45.00284586	    -52.26991938	     21.09992678	    106.27255043	     87.84971001	      0.00000000	      0.00000000	    -33.57431426	    -55.40627714	     28.37782801	    105.84540451	     87.87044203	      0.00000000	      0.00000000
      4.80500000	    -15.91310277	      1.22548893	     -5.38507479	     -0.23922773	      0.88665631	     -0.88766608	     46.59951213	    -20.27863297	     -6.89287489	     54.78019220	      0.95609472	     18.59647679	      0.00000000	      0.00000000	     39.35841725	    -27.48827131	    -18.90779289	     52.81880352	      0.92186203	     21.39106126	      0.00000000	      0.00000000	    -18.12652945	      5.50194159	      2.53828477	    -44.29934613	    -52.22151867	     21.74108684	    105.85814901	     87.86399035	      0.00000000	      0.00000000	    -31.61371556	    -55.47132522	     30.11914759	    105.15368280	     87.88768613	      0.00000000	      0.00000000
